HIERARCHY
ROOT Hips
{
	OFFSET 0.000000 0.000000 0.000000
	CHANNELS 6 Xposition Yposition Zposition Xrotation Yrotation Zrotation
	JOINT LeftUpLeg_virtual
	{
		OFFSET 0.000000 0.000000 0.000000
		CHANNELS 3 Xrotation Yrotation Zrotation
		JOINT LeftUpLeg
		{
			OFFSET 13.026900 -6.336304 -1.092800
			CHANNELS 3 Xrotation Yrotation Zrotation
			JOINT LeftLeg
			{
				OFFSET 0.524474 -46.096886 9.782700
				CHANNELS 3 Xrotation Yrotation Zrotation
				JOINT LeftFoot
				{
					OFFSET -0.524474 -53.427422 -12.948200
					CHANNELS 3 Xrotation Yrotation Zrotation
					JOINT LeftToeBase
					{
						OFFSET 0.192200 -14.009700 16.364100
						CHANNELS 3 Xrotation Yrotation Zrotation
						JOINT LeftToe_End
						{
							OFFSET -1.784700 -0.561700 9.474800
							CHANNELS 3 Xrotation Yrotation Zrotation
							End Site
							{
								OFFSET 0 0 0
							}
						}
					}
				}
			}
		}
	}
	JOINT RightUpLeg_virtual
	{
		OFFSET 0.000000 0.000000 0.000000
		CHANNELS 3 Xrotation Yrotation Zrotation
		JOINT RightUpLeg
		{
			OFFSET -12.883000 -6.336304 -1.092800
			CHANNELS 3 Xrotation Yrotation Zrotation
			JOINT RightLeg
			{
				OFFSET -0.524587 -46.096825 9.782800
				CHANNELS 3 Xrotation Yrotation Zrotation
				JOINT RightFoot
				{
					OFFSET 0.524587 -53.427383 -12.948300
					CHANNELS 3 Xrotation Yrotation Zrotation
					JOINT RightToeBase
					{
						OFFSET -0.192200 -14.009700 16.364100
						CHANNELS 3 Xrotation Yrotation Zrotation
						JOINT RightToe_End
						{
							OFFSET 1.784700 -0.561700 9.474800
							CHANNELS 3 Xrotation Yrotation Zrotation
							End Site
							{
								OFFSET 0 0 0
							}
						}
					}
				}
			}
		}
	}
	JOINT Spine_virtual
	{
		OFFSET 0.000000 0.000000 0.000000
		CHANNELS 3 Xrotation Yrotation Zrotation
		JOINT Spine
		{
			OFFSET 0.072000 7.257294 -0.789700
			CHANNELS 3 Xrotation Yrotation Zrotation
			JOINT Spine1
			{
				OFFSET 0.000000 12.508769 -0.658067
				CHANNELS 3 Xrotation Yrotation Zrotation
				JOINT Spine1_split
				{
					OFFSET 0.000000 12.508769 -0.658067
					CHANNELS 3 Xrotation Yrotation Zrotation
					JOINT Spine2
					{
						OFFSET 0.000000 12.508769 -0.658067
						CHANNELS 3 Xrotation Yrotation Zrotation
						JOINT Neck_virtual
						{
							OFFSET 0.000000 0.000000 0.000000
							CHANNELS 3 Xrotation Yrotation Zrotation
							JOINT Neck
							{
								OFFSET 0.000000 14.033295 7.520400
								CHANNELS 3 Xrotation Yrotation Zrotation
								JOINT Head
								{
									OFFSET 0.000000 8.198502 5.703100
									CHANNELS 3 Xrotation Yrotation Zrotation
									JOINT HeadTop_End
									{
										OFFSET 0.000000 17.760803 13.332701
										CHANNELS 3 Xrotation Yrotation Zrotation
										End Site
										{
											OFFSET 0 0 0
										}
									}
								}
							}
						}
						JOINT LeftShoulder_virtual
						{
							OFFSET 0.000000 0.000000 0.000000
							CHANNELS 3 Xrotation Yrotation Zrotation
							JOINT LeftShoulder
							{
								OFFSET 6.292450 5.785301 -0.669000
								CHANNELS 3 Xrotation Yrotation Zrotation
								JOINT LeftShoulder_split
								{
									OFFSET 6.292450 5.785301 -0.669000
									CHANNELS 3 Xrotation Yrotation Zrotation
									JOINT LeftArm
									{
										OFFSET 13.907140 -6.093903 1.965100
										CHANNELS 3 Xrotation Yrotation Zrotation
										JOINT LeftForeArm
										{
											OFFSET 34.140198 0.000000 0.000000
											CHANNELS 3 Xrotation Yrotation Zrotation
											JOINT LeftHand
											{
												OFFSET 40.960209 0.000000 0.000000
												CHANNELS 3 Xrotation Yrotation Zrotation
												End Site
												{
													OFFSET 0 0 0
												}
											}
										}
									}
								}
							}
						}
						JOINT RightShoulder_virtual
						{
							OFFSET 0.000000 0.000000 0.000000
							CHANNELS 3 Xrotation Yrotation Zrotation
							JOINT RightShoulder
							{
								OFFSET -6.292450 5.785301 -0.669000
								CHANNELS 3 Xrotation Yrotation Zrotation
								JOINT RightShoulder_split
								{
									OFFSET -6.292450 5.785301 -0.669000
									CHANNELS 3 Xrotation Yrotation Zrotation
									JOINT RightArm
									{
										OFFSET -13.907140 -6.093903 1.965100
										CHANNELS 3 Xrotation Yrotation Zrotation
										JOINT RightForeArm
										{
											OFFSET -34.140198 0.000000 0.000000
											CHANNELS 3 Xrotation Yrotation Zrotation
											JOINT RightHand
											{
												OFFSET -40.960209 0.000000 0.000000
												CHANNELS 3 Xrotation Yrotation Zrotation
												End Site
												{
													OFFSET 0 0 0
												}
											}
										}
									}
								}
							}
						}
					}
				}
			}
		}
	}
}
MOTION
Frames: 11
Frame Time: 0.03333333
-1.345102 93.332458 -8.604961 0.000000 0.000000 0.000000 4.994144 -45.435071 5.217063 -46.010313 20.713812 30.546320 45.148800 -0.769133 -7.531122 -11.034455 12.161047 -6.735945 0.848576 0.409476 0.226528 0.000000 0.000000 0.000000 5.193273 -42.561624 4.795927 -25.265032 -14.375566 -22.374752 53.843255 23.219865 -5.996314 -30.479306 -14.260411 15.992225 -2.534280 7.825433 -10.870623 0.000000 0.000000 0.000000 5.744294 -39.987004 2.079157 7.069073 -5.651444 1.458999 3.670680 7.046040 -2.254620 -0.196486 0.464673 -0.132614 0.000000 0.000000 0.000000 14.588188 9.337087 -2.262746 4.822435 13.427498 20.307464 -28.289704 -7.171888 42.822209 0.000000 0.000000 0.000000 11.692929 9.589142 -3.854191 -21.559332 -4.440887 -11.276318 -11.306680 2.328216 -1.202919 26.130854 -23.575487 -7.164068 -5.344029 -68.731340 -10.044210 0.000000 0.000000 0.000000 15.952930 8.534583 -7.763371 -16.201649 18.643227 11.124815 -10.287501 -8.451703 -6.081823 -8.797754 2.577717 48.614684 63.554897 54.532548 -35.786390 0.000000 0.000000 0.000000 
-1.236091 93.301544 -8.602894 0.000000 0.000000 0.000000 4.970703 -45.765573 5.332570 -46.330611 20.850378 30.484070 45.645635 -0.570651 -7.534242 -10.882427 12.116018 -6.667407 0.654919 0.396209 0.257642 0.000000 0.000000 0.000000 5.375097 -43.158770 4.963314 -25.522803 -14.731690 -22.439045 53.769851 23.268556 -5.947763 -30.597735 -14.121330 15.644721 -2.233011 7.797035 -10.823048 0.000000 0.000000 0.000000 6.077719 -40.398499 2.616895 6.766442 -5.518332 1.298394 3.406537 7.049710 -2.306905 -0.165753 0.406533 -0.101243 0.000000 0.000000 0.000000 14.646040 9.331137 -2.305766 5.931863 13.398463 20.059432 -28.409359 -7.496986 43.089761 0.000000 0.000000 0.000000 11.632756 9.632907 -3.836768 -21.380819 -4.767202 -11.210501 -11.023249 2.014551 -1.959831 26.973897 -24.193732 -7.499426 -5.910464 -68.154018 -9.992001 0.000000 0.000000 0.000000 15.717293 8.357715 -7.913787 -15.685101 18.413845 11.249420 -9.382499 -7.456128 -5.169116 -8.863390 2.432976 48.609698 62.008549 53.832355 -34.334613 0.000000 0.000000 0.000000 
-1.179157 93.243896 -8.603077 0.000000 0.000000 0.000000 4.915053 -45.881581 5.307223 -46.775140 20.830859 30.557713 46.072720 -0.345337 -7.532835 -10.641652 11.632003 -6.472152 0.265300 0.327785 0.439920 0.000000 0.000000 0.000000 5.572159 -43.596606 5.068467 -25.833794 -15.181839 -22.541158 54.026933 23.405008 -5.970193 -30.602164 -13.894294 15.636557 -2.807899 7.814628 -10.963671 0.000000 0.000000 0.000000 6.036228 -40.900023 2.965934 6.392185 -5.172389 1.077242 3.078308 7.249624 -2.278554 -0.110518 0.397420 -0.096561 0.000000 0.000000 0.000000 14.287636 9.470023 -2.388924 7.964122 12.890722 19.652389 -28.177976 -8.335709 42.675087 0.000000 0.000000 0.000000 11.265028 9.879291 -3.815326 -21.238905 -5.552108 -11.040901 -10.420330 1.800759 -2.187828 28.033229 -25.577038 -8.045609 -4.795150 -65.644648 -8.228179 0.000000 0.000000 0.000000 15.520900 8.445434 -7.963671 -14.840374 17.847894 10.766297 -8.366671 -6.698907 -4.441008 -8.797879 3.239230 48.181022 60.567987 53.853374 -33.348337 0.000000 0.000000 0.000000 
-1.200169 93.123154 -8.608349 0.000000 0.000000 0.000000 4.883094 -45.645874 5.153141 -47.470778 20.579147 30.874586 46.486524 -0.193947 -7.580580 -10.146944 10.753070 -6.444511 -0.365185 0.230649 0.748517 0.000000 0.000000 0.000000 5.614127 -43.738540 5.032868 -26.149350 -15.704379 -22.651966 54.368422 23.587024 -6.052481 -30.861571 -13.653520 15.626862 -3.792727 7.835444 -11.271620 0.000000 0.000000 0.000000 5.690140 -41.372003 3.093375 6.091235 -4.697860 0.838812 2.747586 7.499762 -2.110813 -0.064467 0.402907 -0.108967 0.000000 0.000000 0.000000 13.635396 9.669678 -2.430097 10.459745 11.993775 19.255526 -27.735305 -9.425691 41.536590 0.000000 0.000000 0.000000 10.673933 10.178992 -3.686497 -21.118982 -6.714197 -10.791822 -9.858069 1.815884 -2.399159 29.002090 -27.679260 -8.647405 -3.141634 -61.618463 -5.907980 0.000000 0.000000 0.000000 15.289086 8.687803 -7.817379 -13.643574 16.946280 9.611348 -7.676769 -6.534003 -4.017633 -8.537125 4.708218 47.510854 59.351304 54.612710 -32.924978 0.000000 0.000000 0.000000 
-1.290941 92.950615 -8.658405 0.000000 0.000000 0.000000 4.886424 -45.229909 4.939781 -48.424897 19.855944 31.297587 47.084455 -0.140681 -7.678765 -9.269629 9.667948 -6.720272 -1.024789 0.145903 1.108690 0.000000 0.000000 0.000000 5.532935 -43.602056 4.917435 -26.448989 -16.190600 -22.737881 54.861032 23.763150 -6.199256 -31.537797 -13.432265 15.307069 -4.344671 7.789044 -11.734572 0.000000 0.000000 0.000000 5.248178 -41.550776 3.122837 5.877302 -4.220746 0.588595 2.428703 7.609594 -1.779992 -0.050878 0.405793 -0.121668 0.000000 0.000000 0.000000 12.866054 9.816822 -2.302806 13.121237 10.945097 18.944867 -27.339026 -10.395272 39.836986 0.000000 0.000000 0.000000 9.982885 10.365530 -3.424509 -20.977111 -8.155950 -10.476479 -9.280568 2.825211 -2.992599 30.048195 -30.401585 -9.098915 -1.980646 -56.622019 -4.048712 0.000000 0.000000 0.000000 14.921212 8.945411 -7.402256 -12.135569 15.788500 7.920544 -7.172259 -6.366525 -3.810612 -8.231762 6.502691 46.931726 58.193430 55.786670 -32.785765 0.000000 0.000000 0.000000 
-1.473832 92.681602 -8.688496 0.000000 0.000000 0.000000 4.948779 -44.751587 4.724675 -49.524192 18.682196 31.649427 47.910686 0.028671 -7.851473 -8.172695 8.737181 -7.022238 -1.220214 0.101740 1.357946 0.000000 0.000000 0.000000 5.494515 -43.052308 4.790848 -26.763840 -16.515474 -22.808237 55.561140 23.899107 -6.357892 -32.340580 -13.275519 14.838741 -4.188733 7.656561 -12.318584 0.000000 0.000000 0.000000 4.800085 -41.343128 3.140290 5.663112 -3.845599 0.330084 2.135971 7.478085 -1.332827 -0.016420 0.403266 -0.115390 0.000000 0.000000 0.000000 12.177565 9.852844 -1.971701 15.755109 10.024183 18.703799 -27.164171 -10.813904 37.819772 0.000000 0.000000 0.000000 9.330295 10.342266 -3.073806 -20.781004 -9.771371 -10.106513 -8.746597 4.323575 -4.119386 31.469052 -33.048823 -9.177939 -1.532021 -50.941610 -2.893796 0.000000 0.000000 0.000000 14.366178 9.112914 -6.731115 -10.406731 14.477394 5.864797 -6.600291 -5.614848 -3.790216 -8.045930 8.432964 46.823412 56.708745 56.804395 -32.426487 0.000000 0.000000 0.000000 
-1.769222 92.268364 -8.785137 0.000000 0.000000 0.000000 5.255981 -44.305183 4.644284 -50.422027 17.254002 31.652125 48.887455 0.604419 -8.073536 -7.395388 8.283128 -6.758087 -0.906777 0.094447 1.449960 0.000000 0.000000 0.000000 5.695809 -42.085368 4.755521 -27.052342 -16.513722 -22.776762 56.357619 24.073647 -6.551976 -32.934281 -13.205366 14.691378 -3.811926 7.501235 -12.958908 0.000000 0.000000 0.000000 4.508391 -40.984414 3.159051 5.359513 -3.580236 0.079572 1.927427 7.169572 -0.869122 0.024262 0.386708 -0.106869 0.000000 0.000000 0.000000 11.653764 9.816151 -1.485035 18.366828 9.429025 18.392786 -27.502272 -10.371809 35.907349 0.000000 0.000000 0.000000 8.857558 10.119624 -2.736478 -20.520113 -11.453251 -9.658317 -8.657695 5.711862 -5.716778 33.770631 -34.867552 -8.695093 -1.711149 -45.162932 -2.352641 0.000000 0.000000 0.000000 13.569248 9.159977 -5.906288 -8.637997 13.156017 3.648217 -6.423017 -4.410689 -3.719275 -7.956593 10.594959 47.280475 54.362541 56.990395 -31.203692 0.000000 0.000000 0.000000 
-2.156965 91.824577 -8.852734 0.000000 0.000000 0.000000 5.877318 -43.828757 4.802361 -50.828823 15.871478 31.112468 49.711913 1.641269 -8.282723 -7.282877 8.317202 -5.836050 -0.505292 0.115526 1.457112 0.000000 0.000000 0.000000 6.298520 -41.033741 4.930843 -27.183391 -16.104799 -22.567760 57.010083 24.291178 -6.786440 -33.336347 -13.285598 14.950430 -3.492757 7.372864 -13.588123 0.000000 0.000000 0.000000 4.605134 -40.594382 3.205628 4.879704 -3.371402 -0.095211 1.772588 6.883109 -0.510224 0.074906 0.340853 -0.094756 0.000000 0.000000 0.000000 11.271053 9.800869 -0.955191 20.923289 9.182992 17.819791 -28.393506 -9.312833 34.540314 0.000000 0.000000 0.000000 8.511556 9.862271 -2.536277 -20.210074 -13.065435 -9.153809 -9.394106 6.928269 -6.929041 36.588681 -35.625642 -7.824218 -2.193309 -40.328357 -2.196921 0.000000 0.000000 0.000000 12.705752 9.213221 -5.106622 -6.997320 11.871930 1.378003 -6.574829 -3.146536 -3.337436 -7.736315 13.207451 48.156293 50.878434 55.731571 -28.792847 0.000000 0.000000 0.000000 
-2.585739 91.496040 -8.723003 0.000000 0.000000 0.000000 6.754337 -43.429621 5.253355 -50.729044 14.749406 30.160316 50.024073 2.753957 -8.381454 -7.505216 8.444517 -4.992383 -0.673528 0.152770 1.550390 0.000000 0.000000 0.000000 7.192163 -40.198129 5.344434 -27.158007 -15.472573 -22.304377 57.311400 24.467351 -6.993575 -33.701485 -13.562392 15.284935 -2.809518 7.245185 -14.129466 0.000000 0.000000 0.000000 5.158570 -40.374310 3.298155 4.242270 -3.142327 -0.138622 1.644036 6.875348 -0.321230 0.130701 0.270160 -0.087783 0.000000 0.000000 0.000000 10.981025 9.926770 -0.551370 22.972342 9.176295 17.006273 -29.953118 -7.954046 34.090533 0.000000 0.000000 0.000000 8.176291 9.802430 -2.544487 -19.935010 -14.350815 -8.595901 -10.693590 7.821778 -7.655264 39.098141 -35.482911 -6.922547 -2.653988 -37.470821 -2.304046 0.000000 0.000000 0.000000 11.965346 9.421175 -4.513139 -5.631468 10.603083 -0.754485 -7.065170 -2.384057 -2.762607 -7.007651 16.511875 49.209894 46.952141 52.985500 -25.848019 0.000000 0.000000 0.000000 
-2.957466 91.311874 -8.450207 0.000000 0.000000 0.000000 7.721587 -43.174633 5.987220 -50.211166 13.904487 28.815762 49.814830 3.774788 -8.423544 -7.784828 8.333336 -4.389498 -1.711807 0.153985 1.847173 0.000000 0.000000 0.000000 8.308299 -39.925369 6.070181 -27.120955 -14.874364 -22.193416 57.199337 24.507938 -7.092134 -34.115989 -14.044583 15.412655 -1.477181 7.103197 -14.500058 0.000000 0.000000 0.000000 6.074113 -40.199686 3.469806 3.588446 -2.833445 -0.114238 1.503877 7.232351 -0.305144 0.148353 0.182027 -0.071243 0.000000 0.000000 0.000000 10.768901 10.299627 -0.410051 24.094462 9.272919 16.103392 -32.113395 -6.609297 34.773050 0.000000 0.000000 0.000000 7.816433 10.064449 -2.752772 -19.759473 -15.154991 -7.949920 -11.965864 8.611647 -7.828445 40.439416 -34.953753 -6.354287 -3.070404 -36.924399 -2.673820 0.000000 0.000000 0.000000 11.360956 9.864636 -4.194570 -4.621530 9.338909 -2.556810 -7.969591 -2.246259 -2.162482 -5.434091 20.512720 50.253492 43.377295 49.220170 -23.105874 0.000000 0.000000 0.000000 
-3.240280 91.304916 -8.109570 0.000000 0.000000 0.000000 8.539456 -42.931922 6.870403 -49.610229 13.342776 27.198894 49.386700 4.603929 -8.475593 -7.762938 7.815626 -3.921521 -3.002958 0.118896 2.268310 0.000000 0.000000 0.000000 9.375551 -40.286699 7.060331 -27.104277 -14.484045 -22.438503 56.759357 24.374348 -7.019169 -34.371824 -14.742362 15.469900 -0.005292 7.017742 -14.660099 0.000000 0.000000 0.000000 7.140975 -39.905483 3.732210 3.114007 -2.523511 -0.047070 1.333626 7.897124 -0.432152 0.172614 0.084102 -0.039165 0.000000 0.000000 0.000000 10.599692 10.870199 -0.584353 23.999130 9.341681 15.114056 -34.263272 -5.798653 36.731337 0.000000 0.000000 0.000000 7.427325 10.557776 -3.114351 -19.753208 -15.480065 -7.248841 -12.945644 9.059652 -7.357298 40.068267 -34.258200 -6.377764 -3.406757 -37.966887 -3.328043 0.000000 0.000000 0.000000 10.884332 10.501421 -4.118142 -3.965550 8.067551 -3.967673 -8.904180 -2.361192 -1.485822 -2.778772 24.707262 51.113605 40.614658 45.375460 -20.994147 0.000000 0.000000 0.000000 
